<svg width="10" height="10" viewBox="0 0 10 10" fill="none" xmlns="http://www.w3.org/2000/svg">
<path d="M5.74379 0.847789L6.60455 2.5693C6.72192 2.80894 7.03493 3.0388 7.29902 3.08282L8.85914 3.34203C9.85684 3.50831 10.0916 4.23213 9.37266 4.94616L8.15978 6.15905C7.95437 6.36445 7.84188 6.7606 7.90546 7.04426L8.2527 8.54569C8.52658 9.73412 7.89568 10.1938 6.84419 9.57273L5.38188 8.70708C5.11779 8.55058 4.68252 8.55058 4.41353 8.70708L2.95122 9.57273C1.90462 10.1938 1.26884 9.72923 1.54271 8.54569L1.88995 7.04426C1.95353 6.7606 1.84104 6.36445 1.63564 6.15905L0.422752 4.94616C-0.291284 4.23213 -0.0614229 3.50831 0.936272 3.34203L2.49639 3.08282C2.7556 3.0388 3.0686 2.80894 3.18598 2.5693L4.04673 0.847789C4.51624 -0.0863275 5.27918 -0.0863275 5.74379 0.847789Z" fill="black"/>
</svg>
